<svg xmlns="http://www.w3.org/2000/svg" width="261" height="67" viewBox="0, 0, 261, 67"><g id="Layer_1"><path d="M18.1 36.2l18.1-18.1 18.1 18.1-6.1 6H24.1z" fill="#98D5E9"/><path d="M48.2 42.2l24.1-24.1v24.1z" fill="#00A1DF"/><path d="M18.1 0l18.1 18.1L54.3 0z" fill="#00609C"/><path d="M24.1 42.2l12.1 12.1 12-12.1z" fill="#00609C"/><path d="M48.2 66.3V42.2h24.1z" fill="#00609C"/><path d="M0 42.2h24.1L0 18.1z" fill="#00A1DF"/><path d="M54.3 18.1h18L54.3 0z" fill="#00A1DF"/><path d="M48.2 66.3l-12-12-12.1 12z" fill="#00A1DF"/><path d="M0 18.1h18.1V0z" fill="#00A1DF"/><path d="M36.2 18.1H18.1V0z" fill="#98D5E9"/><path d="M36.2 18.1h18.1V0z" fill="#98D5E9"/><path d="M54.3 36.2V18.1h18z" fill="#98D5E9"/><path d="M48.2 42.2v24.1l-12-12z" fill="#98D5E9"/><path d="M24.1 42.2v24.1l12.1-12z" fill="#98D5E9"/><path d="M18.1 36.2V18.1H0z" fill="#98D5E9"/><path d="M54.3 36.2V18.1H36.2z" fill="#00609C"/><path d="M36.2 18.1H18.1v18.1z" fill="#00609C"/><path d="M0 42.2l24.1 24.1V42.2z" fill="#00609C"/><path d="M237.9 57.5c7.1 0 12.1-5.6 12.1-14.7 0-9.3-4.8-14.7-12.1-14.7s-12.1 5.5-12.1 14.7 5 14.7 12.1 14.7m0-38.8c14 0 23 9.5 23 24.3 0 14.7-8.9 24-23 24s-23-9.3-23-24c0-14.8 9-24.3 23-24.3" fill="#00A1DF"/><path d="M108.9 66.9" fill="#00A1DF"/><path d="M138.5 27.5c6.2 0 10.5 4.1 10.8 10.1h-22.4c.3-5.6 5.3-10.1 11.6-10.1m.9 30c-8.1 0-12-5.4-12.8-11.7h33.5c0-.8.1-2 .1-2.8 0-14.1-7.1-24.3-21.8-24.3-12.9 0-22.6 9.5-22.6 23.7 0 14.9 9.3 24.6 22.9 24.6 12 0 18.2-6.7 20.9-10.4l-6.9-6.9c-1.4 2.3-5.1 7.8-13.3 7.8" fill="#00A1DF"/><path d="M188.1 27.5c6.2 0 10.5 4.1 10.8 10.1h-22.4c.3-5.6 5.3-10.1 11.6-10.1m.9 30c-8.1 0-12-5.4-12.8-11.7h33.5c0-.8.1-2 .1-2.8 0-14.1-7.1-24.3-21.8-24.3-12.9 0-22.6 9.5-22.6 23.7 0 14.9 9.3 24.6 22.9 24.6 12 0 18.2-6.7 20.9-10.4l-6.9-6.9c-1.4 2.3-5.1 7.8-13.3 7.8" fill="#00A1DF"/><path d="M88.4 0v10.5h8.1v55.8h10.8V0z" fill="#00A1DF"/></g></svg>